<svg width="31" height="38" viewBox="0 0 31 38" fill="none" xmlns="http://www.w3.org/2000/svg">
<path d="M23.9746 8.98962C21.0823 5.94786 19.6346 4.23741 20.9568 1.59283C21.1274 1.25171 21.1092 0.846455 20.9087 0.521991C20.7081 0.197526 20.3538 0 19.9724 0C15.865 0 14.1167 3.40732 12.9722 5.47584C12.0164 7.20331 11.3758 8.25228 10.5413 8.25228C9.64823 8.25228 9.31466 7.69162 9.28421 6.98883C9.30373 6.05902 8.18725 5.54195 7.47882 6.14964C3.62971 9.33757 -0.218525 16.4227 0.00967205 22.3208C0.0095253 30.7281 6.84948 37.5681 15.2569 37.5681C23.6822 37.5681 30.5042 30.6803 30.5042 22.3207C30.5041 15.8564 26.8837 12.0489 23.9746 8.98962ZM15.2569 32.8525C9.4496 32.8525 4.72505 28.1279 4.72505 22.3207C5.25452 8.36807 25.2613 8.37181 25.7886 22.3209C25.7886 28.128 21.0641 32.8525 15.2569 32.8525Z" fill="white"/>
<path d="M22.3311 21.2201H23.5155C23.3199 19.7451 22.7368 18.3909 21.8723 17.2629C20.8026 18.2589 19.3203 16.7754 20.3159 15.7064C19.1879 14.8417 17.8336 14.2585 16.3584 14.063V15.2474C16.3584 15.8552 15.8656 16.348 15.2578 16.348C14.6499 16.348 14.1572 15.8552 14.1572 15.2474V14.0631C12.6806 14.2588 11.3251 14.8429 10.1965 15.7089C11.0553 16.7589 9.69477 18.1179 8.6458 17.2596C7.77983 18.3882 7.19576 19.7436 7 21.2202H8.18435C8.79219 21.2202 9.28497 21.713 9.28497 22.3208C9.28497 22.9287 8.79219 23.4215 8.18435 23.4215H7C7.19576 24.8981 7.77983 26.2535 8.6458 27.3821C9.69573 26.5233 11.0549 27.8839 10.1964 28.9327C11.325 29.7987 12.6805 30.3828 14.1571 30.5786V29.3941C14.1571 28.7863 14.6499 28.2935 15.2577 28.2935C15.8655 28.2935 16.3583 28.7863 16.3583 29.3941V30.5785C17.8349 30.3827 19.1903 29.7986 20.319 28.9327C19.4602 27.8826 20.8207 26.5236 21.8697 27.382C22.7357 26.2534 23.3197 24.8979 23.5155 23.4213H22.3311C20.8727 23.3675 20.8732 21.2739 22.3311 21.2201ZM18.9833 20.1518L16.036 23.0991C15.8296 23.3055 15.5497 23.4215 15.2578 23.4215C14.9659 23.4215 14.686 23.3055 14.4796 23.0991L12.7112 21.3307C11.7185 20.2622 13.1981 18.7809 14.2677 19.7742L15.2579 20.7643L17.4268 18.5953C18.4959 17.6022 19.9762 19.0828 18.9833 20.1518Z" fill="white"/>
</svg>
