<svg width="20" height="20" viewBox="0 0 20 20" fill="none" xmlns="http://www.w3.org/2000/svg">
<path d="M18.6376 13.0444C17.6217 12.228 16.6898 11.8311 15.7886 11.8311C14.4848 11.8311 13.5462 12.6604 12.6963 13.51C12.5986 13.6078 12.4803 13.6533 12.324 13.6533C11.6078 13.6534 10.348 12.7566 8.57945 10.9878C6.49884 8.90707 5.71219 7.58367 6.24115 7.0545C7.67509 5.62105 8.12275 4.18405 5.92728 1.45364C5.14133 0.475428 4.37236 0 3.57646 0C2.50309 0 1.68713 0.857998 0.96724 1.61506C0.84278 1.74593 0.725211 1.86955 0.609938 1.98483C-0.203719 2.79841 -0.203301 4.57302 0.611122 6.73215C1.50469 9.10114 3.26899 11.6782 5.5791 13.9887C7.36561 15.775 9.30944 17.2187 11.2006 18.188C12.8516 19.0343 14.4531 19.4877 15.71 19.4877C15.7102 19.4877 15.7103 19.4877 15.7105 19.4877C16.4971 19.4877 17.136 19.3162 17.558 18.9672C18.4152 18.2585 20.0106 16.9458 20 15.3866C19.9941 14.5503 19.5359 13.7666 18.6376 13.0444Z" fill="white"/>
</svg>
