<svg width="17" height="17" viewBox="0 0 17 17" fill="none" xmlns="http://www.w3.org/2000/svg">
<path d="M11.9155 11.2829L12.0024 11.1797C13.02 9.96995 13.5775 8.44814 13.5775 6.86374C13.5775 3.16198 10.5655 0.15 6.86374 0.15C3.16198 0.15 0.15 3.16198 0.15 6.86374C0.15 10.5655 3.16198 13.5775 6.86374 13.5775C8.25371 13.5775 9.57753 13.1585 10.7098 12.3627L10.8151 12.2888L10.9042 12.3815L14.9809 16.6214L11.9155 11.2829ZM11.9155 11.2829L12.0091 11.3802M11.9155 11.2829L12.0091 11.3802M12.0091 11.3802L16.0551 15.5883C16.3399 15.8845 16.3305 16.3572 16.0344 16.6421L16.0344 16.6421M12.0091 11.3802L16.0344 16.6421M16.0344 16.6421C15.895 16.7763 15.7118 16.85 15.518 16.85C15.3133 16.85 15.1231 16.7691 14.981 16.6215L16.0344 16.6421ZM12.0869 6.86374C12.0869 3.98348 9.74401 1.64054 6.86374 1.64054C3.98348 1.64054 1.64054 3.98348 1.64054 6.86374C1.64054 9.74401 3.98348 12.0869 6.86374 12.0869C9.74401 12.0869 12.0869 9.74401 12.0869 6.86374Z" fill="#AFAFAF" stroke="white" stroke-width="0.3"/>
</svg>
