<svg width="26" height="26" viewBox="0 0 26 26" fill="none" xmlns="http://www.w3.org/2000/svg">
<path d="M23.2957 21.4408L22.1346 6.80987C22.0622 5.86727 21.265 5.12886 20.3197 5.12886H18.0263V5.02577C18.0263 2.25454 15.7717 0 13.0005 0C10.2293 0 7.97473 2.25454 7.97473 5.02577V5.12886H5.68134C4.73595 5.12886 3.93873 5.86722 3.86662 6.80789L2.70516 21.4427C2.61527 22.6145 3.02178 23.7811 3.82036 24.6433C4.61895 25.5054 5.75101 26 6.92625 26H19.0747C20.2499 26 21.382 25.5055 22.1806 24.6433C22.9792 23.7811 23.3857 22.6145 23.2957 21.4408ZM9.49766 5.02577C9.49766 3.0943 11.0691 1.52293 13.0005 1.52293C14.9319 1.52293 16.5033 3.09436 16.5033 5.02577V5.12886H9.49766V5.02577ZM21.0633 23.6085C20.5444 24.1686 19.8382 24.4771 19.0747 24.4771H6.9263C6.16275 24.4771 5.45659 24.1686 4.9377 23.6085C4.41887 23.0483 4.16527 22.3205 4.22357 21.5612L5.38493 6.92631C5.39671 6.77234 5.52692 6.65178 5.68134 6.65178H7.97473V8.52739C7.97473 8.94791 8.31567 9.28886 8.73619 9.28886C9.15671 9.28886 9.49766 8.94791 9.49766 8.52739V6.65178H16.5033V8.52739C16.5033 8.94791 16.8443 9.28886 17.2648 9.28886C17.6853 9.28886 18.0263 8.94791 18.0263 8.52739V6.65178H20.3197C20.4741 6.65178 20.6043 6.77239 20.6163 6.92834L21.7774 21.5592C21.8358 22.3205 21.5821 23.0482 21.0633 23.6085Z" fill="#3B51B4"/>
<path d="M16.4299 12.913C16.1326 12.6156 15.6504 12.6156 15.3531 12.913L11.953 16.3131L10.6456 15.0057C10.3483 14.7083 9.86611 14.7083 9.56873 15.0057C9.27136 15.303 9.27136 15.7852 9.56873 16.0825L11.4146 17.9284C11.5633 18.0771 11.7582 18.1515 11.953 18.1515C12.1478 18.1515 12.3427 18.0771 12.4913 17.9284L16.4298 13.9899C16.7273 13.6925 16.7273 13.2103 16.4299 12.913Z" fill="#3B51B4"/>
</svg>
