<svg width="25" height="25" viewBox="0 0 25 25" fill="none" xmlns="http://www.w3.org/2000/svg">
<path d="M18.8507 12.5C18.8507 12.0955 19.1787 11.7676 19.5832 11.7676H21.1255C20.7728 7.57744 17.4228 4.22749 13.2327 3.87476V5.41714C13.2327 5.82163 12.9047 6.14956 12.5002 6.14956C12.0958 6.14956 11.7678 5.82163 11.7678 5.41714V3.87476C7.57768 4.22749 4.22773 7.57744 3.875 11.7676H5.41733C5.82183 11.7676 6.14976 12.0955 6.14976 12.5C6.14976 12.9045 5.82183 13.2324 5.41733 13.2324H3.875C4.22773 17.4226 7.57768 20.7725 11.7678 21.1252V19.5829C11.7678 19.1784 12.0958 18.8504 12.5002 18.8504C12.9047 18.8504 13.2327 19.1784 13.2327 19.5829V21.1252C17.4228 20.7725 20.7728 17.4226 21.1255 13.2324H19.5832C19.1787 13.2324 18.8507 12.9045 18.8507 12.5ZM16.9236 9.00249L13.0253 13.0106C12.7539 13.2896 12.3115 13.3078 12.0182 13.0514L9.10815 10.5074C8.80361 10.2412 8.77256 9.77847 9.03882 9.47397C9.30503 9.16943 9.76772 9.13828 10.0723 9.40459L12.4595 11.4915L15.8736 7.98115C16.1556 7.69121 16.6193 7.68481 16.9093 7.96675C17.1992 8.24888 17.2057 8.71255 16.9236 9.00249Z" fill="white"/>
<path d="M12.5 0C5.60747 0 0 5.60747 0 12.5C0 19.3925 5.60747 25 12.5 25C19.3925 25 25 19.3925 25 12.5C25 5.60747 19.3925 0 12.5 0ZM12.5 22.6214C6.91904 22.6214 2.37861 18.081 2.37861 12.5C2.37861 6.91904 6.91904 2.37861 12.5 2.37861C18.081 2.37861 22.6214 6.91904 22.6214 12.5C22.6214 18.081 18.081 22.6214 12.5 22.6214Z" fill="white"/>
</svg>
