<svg width="153" height="68" viewBox="0 0 153 68" fill="none" xmlns="http://www.w3.org/2000/svg">
<path d="M6.084 46.892V56H2.484V31.7H13.212C15.492 31.7 17.4 32.432 18.936 33.896C20.472 35.336 21.24 37.136 21.24 39.296C21.24 41.456 20.472 43.268 18.936 44.732C17.4 46.172 15.492 46.892 13.212 46.892H6.084ZM13.212 35.048H6.084V43.58H13.212C14.436 43.58 15.456 43.172 16.272 42.356C17.112 41.54 17.532 40.52 17.532 39.296C17.532 38.072 17.112 37.064 16.272 36.272C15.456 35.456 14.436 35.048 13.212 35.048ZM24.7314 53.984C23.1234 52.376 22.3194 50.348 22.3194 47.9C22.3194 45.452 23.1234 43.424 24.7314 41.816C26.3634 40.184 28.3914 39.368 30.8154 39.368C33.2394 39.368 35.2674 40.184 36.8994 41.816C38.5314 43.448 39.3474 45.476 39.3474 47.9C39.3474 50.324 38.5314 52.352 36.8994 53.984C35.2674 55.616 33.2394 56.432 30.8154 56.432C28.3914 56.432 26.3634 55.616 24.7314 53.984ZM27.1434 44.156C26.1834 45.14 25.7034 46.388 25.7034 47.9C25.7034 49.412 26.1834 50.66 27.1434 51.644C28.1034 52.652 29.3274 53.156 30.8154 53.156C32.2554 53.156 33.4674 52.652 34.4514 51.644C35.4354 50.612 35.9274 49.364 35.9274 47.9C35.9274 46.436 35.4354 45.188 34.4514 44.156C33.4674 43.148 32.2554 42.644 30.8154 42.644C29.3274 42.644 28.1034 43.148 27.1434 44.156ZM71.9463 53.984C70.3383 52.376 69.5343 50.348 69.5343 47.9C69.5343 45.452 70.3383 43.424 71.9463 41.816C73.5783 40.184 75.6063 39.368 78.0303 39.368C80.4543 39.368 82.4823 40.184 84.1143 41.816C85.7463 43.448 86.5623 45.476 86.5623 47.9C86.5623 50.324 85.7463 52.352 84.1143 53.984C82.4823 55.616 80.4543 56.432 78.0303 56.432C75.6063 56.432 73.5783 55.616 71.9463 53.984ZM74.3583 44.156C73.3983 45.14 72.9183 46.388 72.9183 47.9C72.9183 49.412 73.3983 50.66 74.3583 51.644C75.3183 52.652 76.5423 53.156 78.0303 53.156C79.4703 53.156 80.6823 52.652 81.6663 51.644C82.6503 50.612 83.1423 49.364 83.1423 47.9C83.1423 46.436 82.6503 45.188 81.6663 44.156C80.6823 43.148 79.4703 42.644 78.0303 42.644C76.5423 42.644 75.3183 43.148 74.3583 44.156ZM93.0763 56H89.8363V39.8H93.0763V41.852C94.1803 40.196 95.8243 39.368 98.0083 39.368C99.1363 39.368 100.156 39.632 101.068 40.16C102.004 40.664 102.736 41.36 103.264 42.248C104.392 40.328 106.204 39.368 108.7 39.368C110.548 39.368 112.084 39.944 113.308 41.096C114.532 42.248 115.144 43.688 115.144 45.416V56H111.904V46.316C111.904 45.236 111.544 44.336 110.824 43.616C110.104 42.872 109.192 42.5 108.088 42.5C106.96 42.5 106.012 42.872 105.244 43.616C104.5 44.336 104.128 45.248 104.128 46.352V56H100.852V46.316C100.852 45.236 100.492 44.336 99.7723 43.616C99.0523 42.872 98.1523 42.5 97.0723 42.5C95.9443 42.5 94.9963 42.872 94.2283 43.616C93.4603 44.336 93.0763 45.248 93.0763 46.352V56ZM119.157 56V29.9H122.397V47.288L128.517 39.8H132.513L126.141 47.612L133.197 56H129.165L122.397 47.9V56H119.157ZM142.002 39.368C144.09 39.368 145.878 40.076 147.366 41.492V39.8H150.606V56H147.366V54.308C145.878 55.724 144.09 56.432 142.002 56.432C139.77 56.432 137.874 55.616 136.314 53.984C134.802 52.376 134.046 50.348 134.046 47.9C134.046 45.476 134.802 43.448 136.314 41.816C137.874 40.184 139.77 39.368 142.002 39.368ZM145.854 44.156C144.918 43.148 143.754 42.644 142.362 42.644C140.994 42.644 139.818 43.148 138.834 44.156C137.898 45.164 137.43 46.412 137.43 47.9C137.43 49.388 137.898 50.636 138.834 51.644C139.818 52.652 140.994 53.156 142.362 53.156C143.754 53.156 144.918 52.652 145.854 51.644C146.814 50.66 147.294 49.412 147.294 47.9C147.294 46.388 146.814 45.14 145.854 44.156Z" fill="white"/>
<path d="M65 62C64.7647 62 54.1176 62 48.8235 62L65 54.6826H48.8235L65 47.3653H48.8235L65 40.3293H48.8235L64.7059 31.8862L48.5294 33.8563L62.9412 23.1617L47.3529 27.9461L59.4118 15L45 22.5988" stroke="white" stroke-width="3" stroke-linecap="square" stroke-linejoin="bevel"/>
<path d="M24.8263 30.5455L30.479 27.6364H22L24.8263 30.5455Z" fill="white"/>
<path d="M34.7186 32C34.3653 32 33.3054 30.9091 32.9521 30.5455L37.5449 29.0909L38.6048 32H34.7186Z" fill="white"/>
<path d="M22 15.6364L24.8263 18.1818L26.5928 15.6364H22Z" fill="white"/>
<path d="M34.7186 15.2727H33.3054L31.8922 9.81818H33.3054L36.8383 12.3636L34.7186 15.2727Z" fill="white"/>
<path d="M55.9162 9.81818L52.3832 10.5455L51.3234 8.36364H56.976L55.9162 9.81818Z" fill="white"/>
<path d="M76.0539 5.09091L74.6407 4L76.4072 1.45455H79.9401L81 3.27273L76.0539 5.09091Z" fill="white"/>
<path d="M70.4012 1.09091L66.515 1.45455L67.5749 0H70.7545L70.4012 1.09091Z" fill="white"/>
<path d="M68.988 6.90909L66.8683 9.45455L70.0479 8L68.988 6.90909Z" fill="white"/>
<path d="M80.2934 13.4545H75.3473L78.5269 11.6364L80.2934 13.4545Z" fill="white"/>
<path d="M75.3473 21.2697H70.7545L73.2275 16.7273H74.2874L77.1138 20.3636L75.3473 21.2697Z" fill="white"/>
</svg>
