<svg width="20" height="24" viewBox="0 0 20 24" fill="none" xmlns="http://www.w3.org/2000/svg">
<path d="M10.0003 0C5.00832 0 0.947266 4.06105 0.947266 9.05242C0.947266 16.2392 9.02895 23.4587 9.37316 23.7632C9.55316 23.9211 9.77674 24 10.0003 24C10.2327 24 10.4652 23.9147 10.6464 23.7448C10.9894 23.424 19.0534 15.8072 19.0534 9.05305C19.0534 4.06168 14.9911 0 10.0003 0ZM10.0003 13.3693C7.61611 13.3693 5.68411 11.436 5.68411 9.05368C5.68411 6.67137 7.61611 4.7381 10.0003 4.7381C12.3833 4.7381 14.3153 6.67074 14.3153 9.05368C14.3153 11.4366 12.3833 13.3693 10.0003 13.3693Z" fill="white"/>
</svg>
