<svg width="26" height="15" viewBox="0 0 26 15" fill="none" xmlns="http://www.w3.org/2000/svg">
<path d="M1.83739 0C0.822815 0 0 0.822769 0 1.83808C0 2.85266 0.822815 3.67474 1.83739 3.67474C2.85197 3.67474 3.67479 2.85266 3.67479 1.83808C3.67479 0.822769 2.85197 0 1.83739 0Z" fill="black"/>
<path d="M1.83739 5.52808C0.822815 5.52808 0 6.35016 0 7.36548C0 8.38006 0.822815 9.20283 1.83739 9.20283C2.85197 9.20283 3.67479 8.38006 3.67479 7.36548C3.67479 6.35016 2.85197 5.52808 1.83739 5.52808Z" fill="black"/>
<path d="M1.83739 11.0554C0.822815 11.0554 0 11.8782 0 12.8928C0 13.9073 0.822815 14.7302 1.83739 14.7302C2.85197 14.7302 3.67479 13.9073 3.67479 12.8928C3.67479 11.8782 2.85197 11.0554 1.83739 11.0554Z" fill="black"/>
<path d="M24.1516 0.455811H8.44025C7.67729 0.455811 7.05859 1.07451 7.05859 1.83816C7.05859 2.60117 7.67724 3.21982 8.44025 3.21982H24.1516C24.9145 3.21982 25.5332 2.60117 25.5332 1.83816C25.5332 1.07451 24.9145 0.455811 24.1516 0.455811Z" fill="black"/>
<path d="M24.1516 5.98315H8.44025C7.67729 5.98315 7.05859 6.6018 7.05859 7.36551C7.05859 8.12852 7.67724 8.74717 8.44025 8.74717H24.1516C24.9145 8.74717 25.5332 8.12852 25.5332 7.36551C25.5332 6.6018 24.9145 5.98315 24.1516 5.98315Z" fill="black"/>
<path d="M24.1516 11.5107H8.44025C7.67729 11.5107 7.05859 12.1294 7.05859 12.8924C7.05859 13.6554 7.67724 14.274 8.44025 14.274H24.1516C24.9145 14.274 25.5332 13.6554 25.5332 12.8924C25.5332 12.1293 24.9145 11.5107 24.1516 11.5107Z" fill="black"/>
</svg>
