<svg width="30" height="30" viewBox="0 0 30 30" fill="none" xmlns="http://www.w3.org/2000/svg">
<path d="M4.62891 16.7939H7.30271V18.7676H4.62891V16.7939Z" fill="white"/>
<path d="M28.223 11.5662H1.77861C0.809239 11.5662 0.0234375 12.352 0.0234375 13.3213V28.2448C0.0234375 29.2141 0.809239 29.9999 1.77861 29.9999H28.223C29.1924 29.9999 29.9782 29.2141 29.9782 28.2448V13.3213C29.9782 12.352 29.1924 11.5662 28.223 11.5662ZM7.10215 26.1914H2.75789V24.4362H7.10215V26.1914ZM9.05883 19.0602C9.05883 19.8667 8.4027 20.5228 7.59621 20.5228H4.33729C3.5308 20.5228 2.87467 19.8667 2.87467 19.0602V16.5015C2.87467 15.695 3.5308 15.0389 4.33729 15.0389H7.59616C8.40264 15.0389 9.05877 15.695 9.05877 16.5015V19.0602H9.05883ZM13.816 26.1914H9.47174V24.4362H13.816V26.1914ZM20.5299 26.1914H16.1857V24.4362H20.5299V26.1914ZM27.2438 26.1914H22.8995V24.4362H27.2438V26.1914Z" fill="white"/>
<path d="M23.5853 4.2636L19.8358 0.514072C19.1504 -0.171357 18.0391 -0.171357 17.3536 0.514072L8.05664 9.81103H18.3548L23.5853 4.2636Z" fill="white"/>
<path d="M23.478 9.81113L26.2224 6.90037L24.8274 5.50537L20.7676 9.81113H23.478Z" fill="white"/>
<path d="M28.2238 9.81095C28.6008 9.81095 28.9638 9.87142 29.3045 9.98192L27.4644 8.14185L25.8906 9.81101H28.2238V9.81095Z" fill="white"/>
</svg>
