<svg width="24" height="22" viewBox="0 0 24 22" fill="none" xmlns="http://www.w3.org/2000/svg">
<path d="M7.68154 10.0617C7.09044 9.89154 6.49933 9.80519 5.92433 9.80519C5.03641 9.80519 4.29552 10.0081 3.72103 10.2566C4.27487 8.22897 5.60537 4.73038 8.25578 4.33639C8.50124 4.29988 8.70238 4.1224 8.76935 3.88349L9.34863 1.81157C9.39746 1.63635 9.36851 1.4488 9.26857 1.29674C9.16862 1.14468 9.00801 1.04322 8.82801 1.01855C8.6324 0.991866 8.43301 0.978271 8.23539 0.978271C5.05404 0.978271 1.9034 4.29888 0.57391 9.05346C-0.206513 11.8429 -0.435353 16.0365 1.487 18.6762C2.56273 20.1532 4.13213 20.9419 6.15166 21.0207C6.15997 21.021 6.16803 21.0212 6.17634 21.0212C8.66815 21.0212 10.8777 19.3431 11.5499 16.9406C11.9515 15.5043 11.7699 13.9981 11.0384 12.6983C10.3146 11.4131 9.12255 10.4764 7.68154 10.0617Z" fill="#3B51B4"/>
<path d="M23.2798 12.6986C22.5561 11.4131 21.364 10.4764 19.923 10.0617C19.3319 9.89154 18.7408 9.80519 18.1661 9.80519C17.2781 9.80519 16.537 10.0081 15.9625 10.2566C16.5163 8.22897 17.8468 4.73038 20.4975 4.33639C20.743 4.29988 20.9439 4.1224 21.0111 3.88349L21.5904 1.81157C21.6392 1.63635 21.6102 1.4488 21.5103 1.29674C21.4106 1.14468 21.25 1.04322 21.0697 1.01855C20.8744 0.991866 20.675 0.978271 20.4771 0.978271C17.2958 0.978271 14.1451 4.29888 12.8154 9.05346C12.0352 11.8429 11.8064 16.0365 13.729 18.6767C14.8045 20.1534 16.3741 20.9424 18.3934 21.021C18.4017 21.0212 18.4098 21.0215 18.4183 21.0215C20.9099 21.0215 23.1197 19.3433 23.7919 16.9408C24.1929 15.5046 24.0112 13.9981 23.2798 12.6986Z" fill="#3B51B4"/>
</svg>
