<svg width="21" height="21" viewBox="0 0 21 21" fill="none" xmlns="http://www.w3.org/2000/svg">
<g clip-path="url(#clip0)">
<path d="M17.5137 0H3.51373C2.54762 0.00112152 1.76479 0.783943 1.76367 1.75005V18.55C1.76367 19.1299 2.23375 19.6 2.81374 19.6V20.6499C2.81374 20.8433 2.97043 21 3.16365 21H17.8637C18.057 21 18.2137 20.8433 18.2137 20.6499V19.6C18.7935 19.6 19.2637 19.1299 19.2637 18.55V1.75005C19.2624 0.783943 18.4798 0.00112152 17.5137 0V0ZM3.51373 0.699989H17.5137C18.0935 0.699989 18.5637 1.17007 18.5637 1.75005V4.2001H2.46366V1.75005C2.46366 1.17007 2.93374 0.699989 3.51373 0.699989ZM17.5137 20.3H3.51373V19.6H17.5137V20.3ZM18.2137 18.9H2.81374C2.62035 18.9 2.46366 18.7433 2.46366 18.55V4.89993H18.5637V18.55C18.5637 18.7433 18.407 18.9 18.2137 18.9Z" fill="black"/>
<path d="M3.51414 3.49987H7.71407C7.90745 3.49987 8.06415 3.34318 8.06415 3.14996V1.74998C8.06415 1.55659 7.90745 1.3999 7.71407 1.3999H3.51414C3.32075 1.3999 3.16406 1.55659 3.16406 1.74998V3.14996C3.16406 3.34318 3.32075 3.49987 3.51414 3.49987ZM3.86405 2.09989H7.36416V2.79988H3.86405V2.09989Z" fill="black"/>
<path d="M9.81358 3.49987C10.3936 3.49987 10.8636 3.02979 10.8636 2.44997C10.8636 1.86998 10.3936 1.3999 9.81358 1.3999C9.23375 1.3999 8.76367 1.86998 8.76367 2.44997C8.76367 3.02979 9.23375 3.49987 9.81358 3.49987ZM9.81358 2.09989C10.007 2.09989 10.1637 2.25658 10.1637 2.44997C10.1637 2.64319 10.007 2.79988 9.81358 2.79988C9.62035 2.79988 9.46366 2.64319 9.46366 2.44997C9.46366 2.25658 9.62035 2.09989 9.81358 2.09989Z" fill="black"/>
<path d="M12.6144 3.49987C13.1943 3.49987 13.6644 3.02979 13.6644 2.44997C13.6644 1.86998 13.1943 1.3999 12.6144 1.3999C12.0345 1.3999 11.5645 1.86998 11.5645 2.44997C11.5645 3.02979 12.0345 3.49987 12.6144 3.49987ZM12.6144 2.09989C12.8077 2.09989 12.9644 2.25658 12.9644 2.44997C12.9644 2.64319 12.8077 2.79988 12.6144 2.79988C12.4211 2.79988 12.2644 2.64319 12.2644 2.44997C12.2644 2.25658 12.4211 2.09989 12.6144 2.09989Z" fill="black"/>
<path d="M14.7134 2.79984H15.4133C15.6066 2.79984 15.7633 2.64315 15.7633 2.44993C15.7633 2.25655 15.6066 2.09985 15.4133 2.09985H14.7134C14.52 2.09985 14.3633 2.25655 14.3633 2.44993C14.3633 2.64315 14.52 2.79984 14.7134 2.79984Z" fill="black"/>
<path d="M16.813 2.79984H17.513C17.7063 2.79984 17.863 2.64315 17.863 2.44993C17.863 2.25655 17.7063 2.09985 17.513 2.09985H16.813C16.6196 2.09985 16.4629 2.25655 16.4629 2.44993C16.4629 2.64315 16.6196 2.79984 16.813 2.79984Z" fill="black"/>
<path d="M10.514 6.30005C7.4213 6.30005 4.91406 8.80713 4.91406 11.9C4.91406 14.9928 7.4213 17.5 10.514 17.5C13.6068 17.5 16.1141 14.9928 16.1141 11.9C16.1104 8.80873 13.6054 6.30373 10.514 6.30005ZM10.514 16.8C7.80791 16.8 5.61405 14.6062 5.61405 11.9C5.61405 9.19373 7.80791 7.00004 10.514 7.00004C13.2202 7.00004 15.4141 9.19373 15.4141 11.9C15.4112 14.6049 13.2191 16.7972 10.514 16.8Z" fill="black"/>
<path d="M10.5129 7.34989C8.00262 7.34749 5.96546 9.38048 5.96289 11.8908C5.96241 12.4857 6.07857 13.0749 6.30496 13.6251C6.30704 13.6322 6.30496 13.6394 6.30768 13.6464C6.31056 13.6535 6.31713 13.6601 6.32066 13.6682C7.29542 15.9822 9.96159 17.0679 12.2756 16.0931C13.5705 15.5476 14.5403 14.4341 14.903 13.0767C14.9049 13.0709 14.9064 13.065 14.9075 13.0591C15.5575 10.6417 14.1247 8.15514 11.7072 7.5053C11.3178 7.40068 10.9162 7.34829 10.5129 7.34989ZM10.5129 8.04988C12.6342 8.04491 14.358 9.76052 14.3629 11.8816C14.3636 12.1681 14.3323 12.4536 14.2695 12.7329C14.087 12.7933 13.9079 12.8635 13.7329 12.9429C13.2789 13.1786 12.7745 13.301 12.263 13.2999C11.8273 13.3116 11.397 13.2025 11.0193 12.9849C10.5441 12.7204 10.0068 12.5876 9.463 12.5999C8.57395 12.6361 7.69484 12.8011 6.85338 13.0898C6.19361 11.0711 7.29526 8.89983 9.314 8.24022C9.70108 8.11365 10.1058 8.0494 10.5129 8.04988ZM10.5129 15.7499C9.10203 15.749 7.80443 14.9767 7.13056 13.7371C7.88326 13.4809 8.66864 13.3337 9.463 13.2999C9.89863 13.2883 10.329 13.3973 10.7064 13.6149C11.1818 13.8794 11.7192 14.0124 12.263 13.9999C12.8508 14.0031 13.4313 13.869 13.9581 13.6083C13.3093 14.9182 11.9747 15.748 10.5129 15.7499Z" fill="black"/>
</g>
<defs>
<clipPath id="clip0">
<rect width="21" height="21" fill="white"/>
</clipPath>
</defs>
</svg>
