<svg width="27" height="27" viewBox="0 0 27 27" fill="none" xmlns="http://www.w3.org/2000/svg">
<path d="M15.6094 2.10937C15.6094 1.85906 15.5352 1.61436 15.3961 1.40623C15.257 1.1981 15.0593 1.03588 14.8281 0.94009C14.5968 0.844298 14.3423 0.819235 14.0968 0.868069C13.8513 0.916904 13.6258 1.03744 13.4488 1.21444C13.2718 1.39144 13.1513 1.61696 13.1024 1.86246C13.0536 2.10797 13.0787 2.36245 13.1745 2.59371C13.2703 2.82497 13.4325 3.02263 13.6406 3.1617C13.8487 3.30077 14.0934 3.375 14.3438 3.375C14.6793 3.37462 15.001 3.24116 15.2383 3.00389C15.4755 2.76662 15.609 2.44492 15.6094 2.10937ZM13.9219 2.10937C13.9219 2.02594 13.9466 1.94437 13.993 1.87499C14.0393 1.80562 14.1052 1.75154 14.1823 1.71961C14.2594 1.68768 14.3442 1.67933 14.4261 1.69561C14.5079 1.71188 14.5831 1.75206 14.6421 1.81106C14.7011 1.87006 14.7412 1.94524 14.7575 2.02707C14.7738 2.10891 14.7654 2.19373 14.7335 2.27082C14.7016 2.34791 14.6475 2.41379 14.5781 2.46015C14.5088 2.50651 14.4272 2.53125 14.3438 2.53125C14.2319 2.53118 14.1246 2.48671 14.0455 2.40761C13.9664 2.32851 13.9219 2.22124 13.9219 2.10937Z" fill="black"/>
<path d="M10.9688 3.375C11.2017 3.375 11.3906 3.18612 11.3906 2.95312C11.3906 2.72013 11.2017 2.53125 10.9688 2.53125C10.7358 2.53125 10.5469 2.72013 10.5469 2.95312C10.5469 3.18612 10.7358 3.375 10.9688 3.375Z" fill="black"/>
<path d="M18.9844 5.90625H18.8864C18.3859 4.79767 15.9324 4.21875 13.5 4.21875C11.0676 4.21875 8.61411 4.79767 8.11361 5.90625H8.01562C7.68008 5.90663 7.35838 6.04009 7.12111 6.27736C6.88384 6.51463 6.75038 6.83633 6.75 7.17188V24.8906C6.75038 25.2262 6.88384 25.5479 7.12111 25.7851C7.35838 26.0224 7.68008 26.1559 8.01562 26.1562H18.9844C19.3199 26.1559 19.6416 26.0224 19.8789 25.7851C20.1162 25.5479 20.2496 25.2262 20.25 24.8906V7.17188C20.2496 6.83633 20.1162 6.51463 19.8789 6.27736C19.6416 6.04009 19.3199 5.90663 18.9844 5.90625ZM13.5 5.0625C15.6749 5.0625 17.1337 5.50125 17.7731 5.90625H9.22688C9.86628 5.50125 11.3251 5.0625 13.5 5.0625ZM12.2344 25.3125H8.01562C7.90376 25.3124 7.79649 25.268 7.71739 25.1889C7.63829 25.1098 7.59382 25.0025 7.59375 24.8906V19.2252C7.9823 19.0121 8.94164 18.5625 10.125 18.5625C10.8519 18.5712 11.5695 18.7272 12.2344 19.021V25.3125ZM12.2344 18.1109C11.56 17.8565 10.8458 17.7237 10.125 17.7188C9.2509 17.7271 8.38838 17.9197 7.59375 18.2839V14.3438H12.2344V18.1109ZM13.9219 25.3125H13.0781V19.4744C13.3495 19.6229 13.6315 19.751 13.9219 19.8579V25.3125ZM13.9219 18.9477C13.711 18.8585 13.5072 18.7534 13.3122 18.6334C13.2992 18.6248 13.2161 18.5707 13.0781 18.4944V14.3438H13.9219V18.9477ZM19.4062 24.8906C19.4062 25.0025 19.3617 25.1098 19.2826 25.1889C19.2035 25.268 19.0962 25.3124 18.9844 25.3125H14.7656V20.1079C15.1811 20.2013 15.6055 20.2489 16.0312 20.25C17.2449 20.25 18.6074 19.4877 19.4062 18.9602V24.8906ZM19.4062 17.931C18.9089 18.2992 17.3074 19.4062 16.0312 19.4062C15.604 19.4042 15.1787 19.3478 14.7656 19.2384V14.3438H19.4062V17.931ZM19.4062 13.5H7.59375V7.17188C7.59382 7.06001 7.63829 6.95274 7.71739 6.87364C7.79649 6.79454 7.90376 6.75007 8.01562 6.75H18.9844C19.0962 6.75007 19.2035 6.79454 19.2826 6.87364C19.3617 6.95274 19.4062 7.06001 19.4062 7.17188V13.5Z" fill="black"/>
<path d="M13.5 8.01562C13.0828 8.01563 12.675 8.13934 12.3281 8.37112C11.9812 8.6029 11.7108 8.93234 11.5512 9.31778C11.3915 9.70321 11.3498 10.1273 11.4312 10.5365C11.5125 10.9457 11.7134 11.3215 12.0084 11.6166C12.3034 11.9116 12.6793 12.1125 13.0885 12.1938C13.4977 12.2752 13.9218 12.2335 14.3072 12.0738C14.6927 11.9142 15.0221 11.6438 15.2539 11.2969C15.4857 10.95 15.6094 10.5422 15.6094 10.125C15.6087 9.56576 15.3863 9.02961 14.9908 8.63417C14.5954 8.23873 14.0592 8.01628 13.5 8.01562ZM13.5 11.3906C13.2497 11.3906 13.005 11.3164 12.7969 11.1773C12.5887 11.0383 12.4265 10.8406 12.3307 10.6093C12.2349 10.3781 12.2099 10.1236 12.2587 9.87809C12.3075 9.63258 12.4281 9.40707 12.6051 9.23007C12.7821 9.05307 13.0076 8.93253 13.2531 8.88369C13.4986 8.83486 13.7531 8.85992 13.9843 8.95571C14.2156 9.05151 14.4133 9.21372 14.5523 9.42186C14.6914 9.62999 14.7656 9.87468 14.7656 10.125C14.7652 10.4605 14.6318 10.7822 14.3945 11.0195C14.1572 11.2568 13.8355 11.3902 13.5 11.3906Z" fill="black"/>
<path d="M5.0625 2.53125C4.81218 2.53125 4.56749 2.60548 4.35936 2.74455C4.15123 2.88361 3.98901 3.08128 3.89322 3.31254C3.79742 3.5438 3.77236 3.79828 3.82119 4.04379C3.87003 4.28929 3.99057 4.51481 4.16757 4.69181C4.34457 4.86881 4.57008 4.98935 4.81559 5.03818C5.0611 5.08701 5.31557 5.06195 5.54683 4.96616C5.7781 4.87037 5.97576 4.70815 6.11483 4.50002C6.2539 4.29189 6.32812 4.04719 6.32812 3.79687C6.32775 3.46133 6.19428 3.13963 5.95702 2.90236C5.71975 2.66509 5.39805 2.53163 5.0625 2.53125ZM5.0625 4.21875C4.97906 4.21875 4.8975 4.19401 4.82812 4.14765C4.75874 4.10129 4.70467 4.03541 4.67274 3.95832C4.64081 3.88123 4.63245 3.79641 4.64873 3.71457C4.66501 3.63273 4.70519 3.55756 4.76419 3.49856C4.82319 3.43956 4.89836 3.39938 4.9802 3.38311C5.06203 3.36683 5.14686 3.37518 5.22394 3.40711C5.30103 3.43904 5.36692 3.49312 5.41328 3.56249C5.45963 3.63187 5.48437 3.71344 5.48437 3.79687C5.4843 3.90874 5.43983 4.01601 5.36073 4.09511C5.28163 4.17421 5.17437 4.21868 5.0625 4.21875Z" fill="black"/>
<path d="M7.59375 2.53125C7.82675 2.53125 8.01562 2.34237 8.01562 2.10938C8.01562 1.87638 7.82675 1.6875 7.59375 1.6875C7.36075 1.6875 7.17188 1.87638 7.17188 2.10938C7.17188 2.34237 7.36075 2.53125 7.59375 2.53125Z" fill="black"/>
<path d="M4.64062 7.59375C4.87362 7.59375 5.0625 7.40487 5.0625 7.17188C5.0625 6.93888 4.87362 6.75 4.64062 6.75C4.40763 6.75 4.21875 6.93888 4.21875 7.17188C4.21875 7.40487 4.40763 7.59375 4.64062 7.59375Z" fill="black"/>
<path d="M23.2031 8.85938C23.4361 8.85938 23.625 8.6705 23.625 8.4375C23.625 8.2045 23.4361 8.01562 23.2031 8.01562C22.9701 8.01562 22.7812 8.2045 22.7812 8.4375C22.7812 8.6705 22.9701 8.85938 23.2031 8.85938Z" fill="black"/>
<path d="M21.5156 2.95312C21.2653 2.95312 21.0206 3.02735 20.8125 3.16642C20.6044 3.30549 20.4421 3.50315 20.3463 3.73442C20.2505 3.96568 20.2255 4.22015 20.2743 4.46566C20.3232 4.71117 20.4437 4.93668 20.6207 5.11368C20.7977 5.29068 21.0232 5.41122 21.2687 5.46005C21.5142 5.50889 21.7687 5.48383 22 5.38803C22.2312 5.29224 22.4289 5.13002 22.568 4.92189C22.707 4.71376 22.7813 4.46907 22.7813 4.21875C22.7809 3.8832 22.6474 3.5615 22.4101 3.32423C22.1729 3.08697 21.8512 2.9535 21.5156 2.95312ZM21.5156 4.64062C21.4322 4.64062 21.3506 4.61588 21.2812 4.56953C21.2119 4.52317 21.1578 4.45728 21.1259 4.38019C21.0939 4.30311 21.0856 4.21828 21.1019 4.13645C21.1181 4.05461 21.1583 3.97944 21.2173 3.92044C21.2763 3.86144 21.3515 3.82126 21.4333 3.80498C21.5152 3.7887 21.6 3.79706 21.6771 3.82899C21.7542 3.86092 21.82 3.91499 21.8664 3.98437C21.9128 4.05374 21.9375 4.13531 21.9375 4.21875C21.9374 4.33062 21.893 4.43788 21.8139 4.51698C21.7348 4.59608 21.6275 4.64055 21.5156 4.64062Z" fill="black"/>
<path d="M18.5625 2.53125C18.7955 2.53125 18.9844 2.34237 18.9844 2.10938C18.9844 1.87638 18.7955 1.6875 18.5625 1.6875C18.3295 1.6875 18.1406 1.87638 18.1406 2.10938C18.1406 2.34237 18.3295 2.53125 18.5625 2.53125Z" fill="black"/>
</svg>
