<svg width="23" height="23" viewBox="0 0 23 23" fill="none" xmlns="http://www.w3.org/2000/svg">
<path d="M6.09549 1.63306C5.40958 1.63306 4.85156 2.19108 4.85156 2.87703V6.61771C4.85156 7.30362 5.40958 7.86164 6.09549 7.86164C6.78145 7.86164 7.33947 7.30362 7.33947 6.61771V2.87703C7.33947 2.19108 6.78145 1.63306 6.09549 1.63306ZM6.66564 6.61767C6.66564 6.93203 6.4099 7.18777 6.09549 7.18777C5.78113 7.18777 5.52539 6.93203 5.52539 6.61767V2.87703C5.52539 2.56267 5.78113 2.30688 6.09549 2.30688C6.4099 2.30688 6.66564 2.56262 6.66564 2.87703V6.61767Z" fill="black"/>
<path d="M6.09549 10.197C5.40958 10.197 4.85156 10.755 4.85156 11.441V18.3264C4.85156 19.0124 5.40958 19.5704 6.09549 19.5704C6.78145 19.5704 7.33947 19.0124 7.33947 18.3264V11.441C7.33947 10.755 6.78145 10.197 6.09549 10.197ZM6.66564 18.3264C6.66564 18.6408 6.4099 18.8966 6.09549 18.8966C5.78113 18.8966 5.52539 18.6408 5.52539 18.3264V11.441C5.52539 11.1266 5.78113 10.8708 6.09549 10.8708C6.4099 10.8708 6.66564 11.1266 6.66564 11.441V18.3264Z" fill="black"/>
<path d="M17.8106 0H5.18906C3.95614 0 2.95312 1.00283 2.95312 2.23549V19.1606C2.95312 20.2788 3.77852 21.2078 4.85215 21.3707V21.8218C4.85215 22.4715 5.38065 23 6.03031 23H7.51381C8.16342 23 8.69193 22.4715 8.69193 21.8218V21.3961H14.3078V21.8218C14.3078 22.4715 14.8363 23 15.4859 23H16.9694C17.6191 23 18.1476 22.4715 18.1476 21.8218V21.3706C19.2212 21.2077 20.0466 20.2787 20.0466 19.1605V2.23549C20.0466 1.00283 19.0436 0 17.8106 0ZM8.0181 21.8218C8.0181 22.0999 7.79188 22.3262 7.51381 22.3262H6.03031C5.75225 22.3262 5.52598 22.0999 5.52598 21.8218V21.3961H8.0181V21.8218ZM16.9694 22.3262H15.4859C15.2078 22.3262 14.9816 22.0999 14.9816 21.8218V21.3961H17.4737V21.8218H17.4737C17.4737 22.0999 17.2475 22.3262 16.9694 22.3262ZM19.3728 8.82084H16.5182C16.3321 8.82084 16.1812 8.97169 16.1812 9.15776C16.1812 9.34382 16.3321 9.49467 16.5182 9.49467H19.3728V19.1606C19.3728 20.0217 18.672 20.7222 17.8106 20.7222H5.18906C4.32769 20.7222 3.62695 20.0217 3.62695 19.1606V9.49467H15.1705C15.3566 9.49467 15.5075 9.34382 15.5075 9.15776C15.5075 8.97169 15.3566 8.82084 15.1705 8.82084H3.62695V2.23549C3.62695 1.37438 4.32773 0.673827 5.18906 0.673827H17.8106C18.672 0.673827 19.3728 1.37438 19.3728 2.23549V8.82084Z" fill="black"/>
</svg>
