<svg width="21" height="21" viewBox="0 0 21 21" fill="none" xmlns="http://www.w3.org/2000/svg">
<g clip-path="url(#clip0)">
<path d="M2.22015 20.385H18.7777C18.873 20.385 18.959 20.3466 19.0218 20.2838C19.0846 20.221 19.123 20.135 19.123 20.0397C19.123 19.9455 19.0846 19.8595 19.0218 19.7967C18.959 19.7339 18.873 19.6944 18.7777 19.6944C13.2585 19.6944 7.73933 19.6944 2.22015 19.6944C2.12597 19.6944 2.03992 19.7339 1.97713 19.7967C1.91438 19.8595 1.87484 19.9455 1.87484 20.0397C1.87484 20.135 1.91438 20.221 1.97713 20.2838C2.03996 20.3466 2.12597 20.385 2.22015 20.385ZM4.05252 18.5003C3.88271 18.5003 3.74556 18.3619 3.74556 18.1922C3.74556 18.0225 3.88276 17.8853 4.05252 17.8853H4.66177C4.83268 17.8853 4.96988 18.0225 4.96988 18.1922C4.96988 18.3619 4.83268 18.5003 4.66177 18.5003H4.05252ZM7.66025 18.5003C7.49049 18.5003 7.35333 18.3619 7.35333 18.1922C7.35333 18.0225 7.49053 17.8853 7.66025 17.8853H8.2695C8.43926 17.8853 8.57761 18.0225 8.57761 18.1922C8.57761 18.3619 8.43926 18.5003 8.2695 18.5003H7.66025ZM5.85696 18.5003C5.6872 18.5003 5.54885 18.3619 5.54885 18.1922C5.54885 18.0225 5.6872 17.8853 5.85696 17.8853H6.46621C6.63601 17.8853 6.77317 18.0225 6.77317 18.1922C6.77317 18.3619 6.63597 18.5003 6.46621 18.5003H5.85696ZM17.8324 19.0793V17.3063C12.9434 17.3063 8.05437 17.3063 3.16658 17.3063V19.0793H17.8324ZM2.55036 19.0793V16.0029C2.55036 15.8331 2.68871 15.6948 2.85847 15.6948C3.02824 15.6948 3.16658 15.8331 3.16658 16.0029V16.69H9.6217L8.88453 11.265C8.86013 11.0813 9.00315 10.9162 9.18915 10.9162H11.1075C11.2785 10.9162 11.4156 11.0546 11.4156 11.2243C11.4156 11.3941 11.2785 11.5324 11.1075 11.5324H9.54029L10.2414 16.69H13.3678C13.6027 14.9705 13.8363 13.2509 14.0701 11.5324H12.5017C12.3319 11.5324 12.1935 11.3941 12.1935 11.2243C12.1935 11.0546 12.3319 10.9162 12.5017 10.9162H14.4212C14.591 10.9162 14.7281 11.0546 14.7281 11.2243C14.7281 11.2464 14.7258 11.2685 14.7212 11.2895L14.5723 12.3905H15.0851C15.5583 12.3905 15.9884 12.5846 16.3 12.8963C16.6116 13.2079 16.8058 13.6381 16.8058 14.1113C16.8058 14.5844 16.6116 15.0146 16.3 15.3262C15.9884 15.6379 15.5583 15.8319 15.0851 15.8319H14.1037L13.9875 16.69H17.8324V8.09324C17.8324 7.92348 17.9696 7.78637 18.1393 7.78637C18.3091 7.78637 18.4474 7.92352 18.4474 8.09324V19.0793H18.7777C19.0427 19.0793 19.2823 19.1874 19.4567 19.3618C19.6299 19.5351 19.738 19.7758 19.738 20.0397C19.738 20.3047 19.6299 20.5443 19.4567 20.7187C19.2823 20.892 19.0427 21 18.7777 21H2.22015C1.95621 21 1.71553 20.8919 1.54232 20.7187C1.36792 20.5443 1.25977 20.3047 1.25977 20.0397C1.25977 19.7758 1.36792 19.5351 1.54232 19.3618C1.71557 19.1874 1.95625 19.0793 2.22015 19.0793H2.55036ZM13.4608 4.70646C13.291 4.70646 13.1527 4.56922 13.1527 4.3995C13.1527 4.22863 13.291 4.09139 13.4608 4.09139H14.6793C14.8491 4.09139 14.9874 4.22863 14.9874 4.3995C14.9874 4.56926 14.8491 4.70646 14.6793 4.70646H13.4608ZM6.31851 4.70646C6.14875 4.70646 6.01159 4.56922 6.01159 4.3995C6.01159 4.22863 6.14879 4.09139 6.31851 4.09139H7.537C7.70677 4.09139 7.84515 4.22863 7.84515 4.3995C7.84515 4.56926 7.70677 4.70646 7.537 4.70646H6.31851ZM15.0304 7.73173V9.38273C15.0304 9.5525 14.8932 9.69084 14.7235 9.69084H13.4178C13.2469 9.69084 13.1096 9.5525 13.1096 9.38273V7.73173H12.612C12.3481 7.73173 12.1075 7.62357 11.9331 7.44918C11.7597 7.27588 11.6516 7.03525 11.6516 6.77139V6.01207H9.34612V6.77139C9.34612 7.03529 9.23915 7.27593 9.06471 7.44918C8.89031 7.62357 8.65082 7.73173 8.38574 7.73173H7.88814V9.38273C7.88814 9.5525 7.7509 9.69084 7.58118 9.69084H6.27548C6.10572 9.69084 5.96737 9.5525 5.96737 9.38273V7.73173H5.46977C5.20584 7.73173 4.96516 7.62357 4.79195 7.44918C4.61755 7.27588 4.50943 7.03525 4.50943 6.77139V6.01207H3.16654V14.6089C3.16654 14.7786 3.0282 14.917 2.85843 14.917C2.68867 14.917 2.55032 14.7786 2.55032 14.6089V1.61376C2.55032 1.1696 2.73284 0.766172 3.02463 0.474346C3.31654 0.181371 3.71996 0 4.16416 0H16.8337C17.2779 0 17.6813 0.181371 17.9731 0.474305C18.2661 0.766131 18.4475 1.16956 18.4475 1.61372V6.70039C18.4475 6.87016 18.3091 7.00736 18.1394 7.00736C17.9696 7.00736 17.8325 6.87012 17.8325 6.70039V6.01207H16.4884V6.77139C16.4884 7.03529 16.3803 7.27593 16.207 7.44918C16.0327 7.62357 15.7931 7.73173 15.528 7.73173H15.0304ZM13.7247 7.73173V9.07458H14.4153V7.73173H13.7247ZM6.58249 7.73173V9.07458H7.27311V7.73173H6.58249ZM15.8733 6.77139V6.01207H12.2667V6.77139C12.2667 6.86552 12.3063 6.95157 12.369 7.01437C12.4318 7.07716 12.5179 7.11666 12.612 7.11666H15.528C15.6222 7.11666 15.7094 7.07716 15.7722 7.01437C15.835 6.95153 15.8733 6.86552 15.8733 6.77139ZM8.73105 6.77139V6.01207H5.12446V6.77139C5.12446 6.86552 5.164 6.95157 5.22676 7.01437C5.28951 7.07716 5.37556 7.11666 5.46977 7.11666H8.38574C8.48106 7.11666 8.56711 7.07716 8.62986 7.01437C8.6927 6.95153 8.73105 6.86552 8.73105 6.77139ZM14.1874 15.2158H15.0851C15.3885 15.2158 15.6652 15.0914 15.8652 14.8914C16.0652 14.6915 16.1895 14.4148 16.1895 14.1113C16.1895 13.8078 16.0652 13.5311 15.8652 13.3311C15.6652 13.1312 15.3885 13.0068 15.0851 13.0068H14.4886L14.1874 15.2158ZM11.1959 3.22633C11.0261 3.22633 10.8878 3.08917 10.8878 2.91945C10.8878 2.74969 11.0261 2.61134 11.1959 2.61134H13.5236C13.7979 2.61134 14.0479 2.49966 14.2293 2.31829C14.4095 2.13691 14.5223 1.88811 14.5223 1.61372V0.614988H6.47548V1.61376C6.47548 1.88811 6.58831 2.13696 6.76968 2.31833C6.95105 2.4997 7.19985 2.61138 7.47425 2.61138H9.80193C9.9728 2.61138 10.11 2.74973 10.11 2.91949C10.11 3.08926 9.9728 3.22637 9.80193 3.22637H7.47425C7.03013 3.22637 6.62666 3.045 6.33483 2.75317C6.04182 2.46135 5.86049 2.05792 5.86049 1.6138V0.614988H4.16416C3.88973 0.614988 3.64089 0.727781 3.45952 0.909152C3.27814 1.08938 3.16654 1.33937 3.16654 1.61376V5.39708H17.8324V1.61376C17.8324 1.33941 17.7196 1.08942 17.5383 0.909152C17.358 0.727781 17.1081 0.614988 16.8336 0.614988H15.1374V1.61376C15.1374 2.05788 14.956 2.46131 14.6642 2.75313C14.3711 3.04496 13.9677 3.22633 13.5236 3.22633H11.1959Z" fill="black"/>
</g>
<defs>
<clipPath id="clip0">
<rect width="21" height="21" fill="white"/>
</clipPath>
</defs>
</svg>
