<svg width="19" height="21" viewBox="0 0 19 21" fill="none" xmlns="http://www.w3.org/2000/svg">
<path d="M17.0469 0H1.95312C1.04848 0 0.3125 0.735984 0.3125 1.64062V18.0469C0.3125 18.7183 0.718021 19.2964 1.29688 19.5501V20.0156C1.29688 20.5584 1.73845 21 2.28125 21C2.82405 21 3.26562 20.5584 3.26562 20.0156V19.6875H15.7344V20.0156C15.7344 20.5584 16.1759 21 16.7188 21C17.2616 21 17.7031 20.5584 17.7031 20.0156V19.5501C18.282 19.2964 18.6875 18.7183 18.6875 18.0469C18.6875 17.3469 18.6875 3.03946 18.6875 1.64062C18.6875 0.735984 17.9515 0 17.0469 0ZM0.96875 1.64062C0.96875 1.09787 1.41032 0.65625 1.95312 0.65625H17.0469C17.5897 0.65625 18.0312 1.09787 18.0312 1.64062V3.28125H0.96875V1.64062ZM2.60938 20.0156C2.60938 20.1965 2.46217 20.3438 2.28125 20.3438C2.10033 20.3438 1.95312 20.1965 1.95312 20.0156V19.6875H2.60938V20.0156ZM17.0469 20.0156C17.0469 20.1965 16.8997 20.3438 16.7188 20.3438C16.5378 20.3438 16.3906 20.1965 16.3906 20.0156V19.6875H17.0469V20.0156ZM18.0312 18.0469C18.0312 18.5896 17.5897 19.0312 17.0469 19.0312C16.6073 19.0312 4.02499 19.0312 1.95312 19.0312C1.41032 19.0312 0.96875 18.5896 0.96875 18.0469V3.9375H18.0312V18.0469Z" fill="black"/>
<path d="M2.60938 7.04218V16.7344C2.60938 17.2771 3.05095 17.7188 3.59375 17.7188H15.4062C15.9491 17.7188 16.3906 17.2771 16.3906 16.7344V7.04218C16.7825 6.81487 17.0469 6.39101 17.0469 5.90625C17.0469 5.18253 16.4581 4.59375 15.7344 4.59375H3.26562C2.5419 4.59375 1.95312 5.18253 1.95312 5.90625C1.95312 6.39097 2.21747 6.81487 2.60938 7.04218ZM15.4062 17.0625H3.59375C3.41283 17.0625 3.26562 16.9153 3.26562 16.7344V15.75H15.7344V16.7344C15.7344 16.9153 15.5872 17.0625 15.4062 17.0625ZM11.7969 13.7812H7.20312V12.7969C7.20312 12.616 7.35033 12.4688 7.53125 12.4688H11.4688C11.6497 12.4688 11.7969 12.616 11.7969 12.7969V13.7812ZM6.60311 14.4375H12.3969C12.2615 14.8195 11.8965 15.0938 11.4688 15.0938H7.53125C7.10346 15.0938 6.73854 14.8195 6.60311 14.4375ZM15.7344 15.0938H12.7803C12.9868 14.8194 13.1094 14.4784 13.1094 14.1094C13.1094 13.9282 12.9625 13.7812 12.7812 13.7812H12.4531V12.7969C12.4531 12.2541 12.0116 11.8125 11.4688 11.8125H7.53125C6.98845 11.8125 6.54688 12.2541 6.54688 12.7969V13.7812H6.21875C6.03754 13.7812 5.89062 13.9282 5.89062 14.1094C5.89062 14.4784 6.01318 14.8194 6.21965 15.0938H3.26562V7.21875H15.7344V15.0938ZM3.26562 5.25H15.7344C16.0962 5.25 16.3906 5.54441 16.3906 5.90625C16.3906 6.26809 16.0962 6.5625 15.7344 6.5625H3.26562C2.90379 6.5625 2.60938 6.26809 2.60938 5.90625C2.60938 5.54441 2.90379 5.25 3.26562 5.25Z" fill="black"/>
<path d="M12.4531 2.625C12.8156 2.625 13.1094 2.33119 13.1094 1.96875C13.1094 1.60631 12.8156 1.3125 12.4531 1.3125C12.0907 1.3125 11.7969 1.60631 11.7969 1.96875C11.7969 2.33119 12.0907 2.625 12.4531 2.625Z" fill="black"/>
<path d="M9.5 2.625C9.86244 2.625 10.1562 2.33119 10.1562 1.96875C10.1562 1.60631 9.86244 1.3125 9.5 1.3125C9.13756 1.3125 8.84375 1.60631 8.84375 1.96875C8.84375 2.33119 9.13756 2.625 9.5 2.625Z" fill="black"/>
<path d="M6.54688 2.625C6.90931 2.625 7.20312 2.33119 7.20312 1.96875C7.20312 1.60631 6.90931 1.3125 6.54688 1.3125C6.18444 1.3125 5.89062 1.60631 5.89062 1.96875C5.89062 2.33119 6.18444 2.625 6.54688 2.625Z" fill="black"/>
<path d="M4.25 1.64062H2.9375C2.75629 1.64062 2.60938 1.78754 2.60938 1.96875C2.60938 2.14996 2.75629 2.29688 2.9375 2.29688H4.25C4.43121 2.29688 4.57812 2.14996 4.57812 1.96875C4.57812 1.78754 4.43121 1.64062 4.25 1.64062Z" fill="black"/>
</svg>
