<svg width="21" height="21" viewBox="0 0 21 21" fill="none" xmlns="http://www.w3.org/2000/svg">
<path d="M4.82236 16.4062C4.82236 16.4933 4.85693 16.5767 4.91847 16.6383C4.98 16.6998 5.06346 16.7344 5.15049 16.7344C5.23751 16.7344 5.32097 16.6998 5.38251 16.6383C5.44404 16.5767 5.47861 16.4933 5.47861 16.4062C5.47861 16.333 5.49059 16.3131 5.53029 16.2469C5.62513 16.0985 5.67552 15.9261 5.67552 15.75C5.67552 15.5738 5.62513 15.4014 5.53029 15.253C5.4967 15.2067 5.47861 15.1509 5.47861 15.0937C5.47861 15.0365 5.4967 14.9807 5.53029 14.9344C5.62747 14.7871 5.67807 14.614 5.67549 14.4375C5.67549 14.3505 5.64092 14.267 5.57938 14.2055C5.51785 14.1439 5.43439 14.1094 5.34736 14.1094C5.26034 14.1094 5.17688 14.1439 5.11534 14.2055C5.05381 14.267 5.01924 14.3505 5.01924 14.4375C5.01924 14.5107 5.00726 14.5306 4.96756 14.5968C4.87272 14.7452 4.82233 14.9176 4.82233 15.0937C4.82233 15.2698 4.87272 15.4423 4.96756 15.5907C5.00115 15.637 5.01923 15.6928 5.01923 15.75C5.01923 15.8072 5.00115 15.863 4.96756 15.9093C4.87037 16.0566 4.81977 16.2298 4.82236 16.4062Z" fill="black"/>
<path d="M10.0724 16.4062C10.0724 16.4933 10.1069 16.5767 10.1685 16.6383C10.23 16.6998 10.3135 16.7344 10.4005 16.7344C10.4875 16.7344 10.571 16.6998 10.6325 16.6383C10.694 16.5767 10.7286 16.4933 10.7286 16.4062C10.7286 16.333 10.7406 16.3131 10.7803 16.2469C10.8751 16.0985 10.9255 15.9261 10.9255 15.75C10.9255 15.5738 10.8751 15.4014 10.7803 15.253C10.7467 15.2067 10.7286 15.1509 10.7286 15.0937C10.7286 15.0365 10.7467 14.9807 10.7803 14.9344C10.8775 14.7871 10.9281 14.614 10.9255 14.4375C10.9255 14.3505 10.8909 14.267 10.8294 14.2055C10.7678 14.1439 10.6844 14.1094 10.5974 14.1094C10.5103 14.1094 10.4269 14.1439 10.3653 14.2055C10.3038 14.267 10.2692 14.3505 10.2692 14.4375C10.2692 14.5107 10.2573 14.5306 10.2176 14.5968C10.1227 14.7452 10.0723 14.9176 10.0723 15.0937C10.0723 15.2698 10.1227 15.4423 10.2176 15.5907C10.2511 15.637 10.2692 15.6928 10.2692 15.75C10.2692 15.8072 10.2511 15.863 10.2176 15.9093C10.1204 16.0566 10.0698 16.2298 10.0724 16.4062Z" fill="black"/>
<path d="M7.44736 16.4062C7.44736 16.4933 7.48193 16.5767 7.54347 16.6383C7.605 16.6998 7.68846 16.7344 7.77549 16.7344C7.86251 16.7344 7.94597 16.6998 8.0075 16.6383C8.06904 16.5767 8.10361 16.4933 8.10361 16.4062C8.10361 16.333 8.11559 16.3131 8.15529 16.2469C8.25012 16.0985 8.30052 15.9261 8.30052 15.75C8.30052 15.5738 8.25012 15.4014 8.15529 15.253C8.1217 15.2067 8.10361 15.1509 8.10361 15.0937C8.10361 15.0365 8.1217 14.9807 8.15529 14.9344C8.25247 14.7871 8.30306 14.614 8.30049 14.4375C8.30049 14.3505 8.26592 14.267 8.20438 14.2055C8.14284 14.1439 8.05938 14.1094 7.97236 14.1094C7.88534 14.1094 7.80188 14.1439 7.74034 14.2055C7.67881 14.267 7.64423 14.3505 7.64423 14.4375C7.64423 14.5107 7.63226 14.5306 7.59256 14.5968C7.49772 14.7452 7.44733 14.9176 7.44733 15.0937C7.44733 15.2698 7.49772 15.4423 7.59256 15.5907C7.62615 15.637 7.64423 15.6928 7.64423 15.75C7.64423 15.8072 7.62615 15.863 7.59256 15.9093C7.49537 16.0566 7.44477 16.2298 7.44736 16.4062Z" fill="black"/>
<path d="M12.6974 16.4062C12.6974 16.4933 12.7319 16.5767 12.7935 16.6383C12.855 16.6998 12.9385 16.7344 13.0255 16.7344C13.1125 16.7344 13.196 16.6998 13.2575 16.6383C13.319 16.5767 13.3536 16.4933 13.3536 16.4062C13.3536 16.333 13.3656 16.3131 13.4053 16.2469C13.5001 16.0985 13.5505 15.9261 13.5505 15.75C13.5505 15.5738 13.5001 15.4014 13.4053 15.253C13.3717 15.2067 13.3536 15.1509 13.3536 15.0937C13.3536 15.0365 13.3717 14.9807 13.4053 14.9344C13.5025 14.7871 13.5531 14.614 13.5505 14.4375C13.5505 14.3505 13.5159 14.267 13.4544 14.2055C13.3928 14.1439 13.3094 14.1094 13.2224 14.1094C13.1353 14.1094 13.0519 14.1439 12.9903 14.2055C12.9288 14.267 12.8942 14.3505 12.8942 14.4375C12.8942 14.5107 12.8823 14.5306 12.8426 14.5968C12.7477 14.7452 12.6973 14.9176 12.6973 15.0937C12.6973 15.2698 12.7477 15.4423 12.8426 15.5907C12.8761 15.637 12.8942 15.6928 12.8942 15.75C12.8942 15.8072 12.8761 15.863 12.8426 15.9093C12.7454 16.0566 12.6948 16.2298 12.6974 16.4062Z" fill="black"/>
<path d="M15.3224 16.4062C15.3224 16.4933 15.3569 16.5767 15.4185 16.6383C15.48 16.6998 15.5635 16.7344 15.6505 16.7344C15.7375 16.7344 15.821 16.6998 15.8825 16.6383C15.944 16.5767 15.9786 16.4933 15.9786 16.4062C15.9786 16.333 15.9906 16.3131 16.0303 16.2469C16.1251 16.0985 16.1755 15.9261 16.1755 15.75C16.1755 15.5738 16.1251 15.4014 16.0303 15.253C15.9967 15.2067 15.9786 15.1509 15.9786 15.0937C15.9786 15.0365 15.9967 14.9807 16.0303 14.9344C16.1275 14.7871 16.1781 14.614 16.1755 14.4375C16.1755 14.3505 16.1409 14.267 16.0794 14.2055C16.0178 14.1439 15.9344 14.1094 15.8474 14.1094C15.7603 14.1094 15.6769 14.1439 15.6153 14.2055C15.5538 14.267 15.5192 14.3505 15.5192 14.4375C15.5192 14.5107 15.5073 14.5306 15.4676 14.5968C15.3727 14.7452 15.3223 14.9176 15.3223 15.0937C15.3223 15.2698 15.3727 15.4423 15.4676 15.5907C15.5011 15.637 15.5192 15.6928 15.5192 15.75C15.5192 15.8072 15.5011 15.863 15.4676 15.9093C15.3704 16.0566 15.3198 16.2298 15.3224 16.4062Z" fill="black"/>
<path d="M12.7969 6.23438H8.20312C8.1161 6.23438 8.03264 6.26894 7.97111 6.33048C7.90957 6.39202 7.875 6.47548 7.875 6.5625V7.875C7.875 7.96202 7.90957 8.04548 7.97111 8.10702C8.03264 8.16856 8.1161 8.20312 8.20312 8.20312H12.7969C12.8839 8.20312 12.9674 8.16856 13.0289 8.10702C13.0904 8.04548 13.125 7.96202 13.125 7.875V6.5625C13.125 6.47548 13.0904 6.39202 13.0289 6.33048C12.9674 6.26894 12.8839 6.23438 12.7969 6.23438ZM12.4688 7.54688H8.53125V6.89062H12.4688V7.54688Z" fill="black"/>
<path d="M0.666053 10.5796L1.3223 13.2046C1.34005 13.2756 1.38102 13.3386 1.43869 13.3836C1.49637 13.4287 1.56745 13.4531 1.64062 13.4531H19.3594C19.4326 13.4531 19.5036 13.4287 19.5613 13.3836C19.619 13.3386 19.66 13.2756 19.6777 13.2046L20.3339 10.5796H20.3337C20.3403 10.5536 20.3437 10.5268 20.3438 10.5V6.5625C20.3433 6.12753 20.1703 5.71051 19.8627 5.40294C19.5551 5.09537 19.1381 4.92236 18.7031 4.92188H2.29688C1.8619 4.92236 1.44489 5.09537 1.13732 5.40294C0.829746 5.71051 0.656739 6.12753 0.65625 6.5625V10.5C0.656346 10.5268 0.659735 10.5535 0.66634 10.5795L0.666053 10.5796ZM17.7188 12.7969H3.28125V12.1406H17.7188V12.7969ZM19.1032 12.7969H18.375V11.8125C18.375 11.7255 18.3404 11.642 18.2789 11.5805C18.2174 11.5189 18.1339 11.4844 18.0469 11.4844H2.95312C2.8661 11.4844 2.78264 11.5189 2.72111 11.5805C2.65957 11.642 2.625 11.7255 2.625 11.8125V12.7969H1.89681L1.40462 10.8281H19.5954L19.1032 12.7969ZM1.3125 6.5625C1.3128 6.30152 1.41661 6.05132 1.60115 5.86678C1.78569 5.68224 2.0359 5.57843 2.29688 5.57812H18.7031C18.9641 5.57843 19.2143 5.68224 19.3988 5.86678C19.5834 6.05132 19.6872 6.30152 19.6875 6.5625V10.1719H1.3125V6.5625Z" fill="black"/>
</svg>
