<svg width="25" height="18" viewBox="0 0 25 18" fill="none" xmlns="http://www.w3.org/2000/svg">
<path d="M11.5703 0.428467V1.13297H24.266V3.73962H24.9999V0.428467H11.5703Z" fill="black"/>
<path d="M0.733855 1.13297H10.8366V0.428467H0V6.22886H0.733855V1.13297Z" fill="black"/>
<path d="M24.2662 11.6535H23.3611V12.358H24.2662V13.0625H22.6761V13.767H24.2662V14.9881H24.0215H20.3523H8.48828V15.6926H20.3523V16.2797C20.3523 16.9919 20.9558 17.5713 21.6977 17.5713H22.6761C23.418 17.5713 24.0215 16.9919 24.0215 16.2797V15.6926H25V4.44409H24.2662V11.6535ZM23.2877 16.2797C23.2877 16.6034 23.0134 16.8668 22.6761 16.8668H21.6977C21.3604 16.8668 21.0861 16.6034 21.0861 16.2797V15.6926H23.2877V16.2797Z" fill="black"/>
<path d="M1.4668 3.12899V12.992C1.4668 13.7042 2.07032 14.2836 2.8122 14.2836H17.9785C18.7204 14.2836 19.3239 13.7042 19.3239 12.992V3.12899C19.3239 2.41683 18.7204 1.8374 17.9785 1.8374H2.8122C2.07032 1.8374 1.4668 2.41683 1.4668 3.12899ZM18.5901 12.992C18.5901 13.3157 18.3158 13.5791 17.9785 13.5791H2.8122C2.47497 13.5791 2.20065 13.3157 2.20065 12.992V12.5458H11.6185V11.8413H6.48147C6.14424 11.8413 5.86993 11.578 5.86993 11.2542C5.86993 10.6412 6.38431 10.1035 6.97071 10.1035H7.1054C7.09777 10.1879 7.09302 10.2738 7.09302 10.3619V10.8315H7.82687V10.3619C7.82687 8.86738 9.22365 8.55364 10.3954 8.55364C11.5671 8.55364 12.9639 8.86738 12.9639 10.3619V10.8315H13.6977V10.3619C13.6977 10.2738 13.693 10.1879 13.6853 10.1035H13.82C14.4064 10.1035 14.9208 10.6412 14.9208 11.2542C14.9208 11.578 14.6465 11.8413 14.3093 11.8413H12.3523V12.5458H18.5901V12.992ZM18.5901 3.12899V11.8413H15.507C15.6011 11.665 15.6547 11.4656 15.6547 11.2542C15.6547 10.2486 14.8145 9.39904 13.82 9.39904H13.5156C13.3478 8.99579 13.0663 8.65974 12.6769 8.4064C12.1916 8.09074 11.5348 7.90419 10.7623 7.85976V7.68476C10.7623 7.36102 11.0366 7.09768 11.3738 7.09768H14.6028C15.3447 7.09768 15.9482 6.51825 15.9482 5.80609C15.9482 5.09393 15.3447 4.51451 14.6028 4.51451H8.43842C8.10119 4.51451 7.82687 4.25116 7.82687 3.92742V3.31685H7.09302V3.92742C7.09302 4.63958 7.69654 5.21901 8.43842 5.21901H12.6459C12.9831 5.21901 13.2574 5.48235 13.2574 5.80609C13.2574 6.12983 12.9831 6.39317 12.6459 6.39317H11.3738C10.632 6.39317 10.0284 6.9726 10.0284 7.68476V7.85976C9.25589 7.90419 8.59909 8.09069 8.11386 8.4064C7.72443 8.65974 7.44292 8.99579 7.27516 9.39904H6.97071C5.97624 9.39904 5.13607 10.2486 5.13607 11.2542C5.13607 11.4656 5.18955 11.665 5.28372 11.8413H2.20065V7.19161H3.10574V6.48711H2.20065V5.78261H3.79067V5.07811H2.20065V3.12899C2.20065 2.80525 2.47497 2.5419 2.8122 2.5419H17.9785C18.3158 2.5419 18.5901 2.80525 18.5901 3.12899ZM13.8436 5.21901H14.6028C14.94 5.21901 15.2143 5.48235 15.2143 5.80609C15.2143 6.12983 14.94 6.39317 14.6028 6.39317H13.8436C13.9377 6.21691 13.9913 6.01744 13.9913 5.80609C13.9913 5.59474 13.9378 5.39527 13.8436 5.21901Z" fill="black"/>
<path d="M0.978474 14.9881H0.733855V6.93335H0V15.6926H0.978474V16.2797C0.978474 16.9919 1.582 17.5713 2.32387 17.5713H3.30235C4.04423 17.5713 4.64775 16.9919 4.64775 16.2797V15.6926H7.7544V14.9881H4.64775H0.978474ZM3.91389 16.2797C3.91389 16.6035 3.63958 16.8668 3.30235 16.8668H2.32387C1.98664 16.8668 1.71233 16.6035 1.71233 16.2797V15.6926H3.91389V16.2797Z" fill="black"/>
<path d="M21.6979 6.01762C22.7096 6.01762 23.5326 5.22755 23.5326 4.25637C23.5326 3.28519 22.7096 2.49512 21.6979 2.49512C20.6863 2.49512 19.8633 3.28519 19.8633 4.25637C19.8633 5.22755 20.6863 6.01762 21.6979 6.01762ZM21.6979 3.19962C22.3049 3.19962 22.7987 3.6737 22.7987 4.25637C22.7987 4.83904 22.3049 5.31312 21.6979 5.31312C21.0909 5.31312 20.5971 4.83904 20.5971 4.25637C20.5971 3.6737 21.0909 3.19962 21.6979 3.19962Z" fill="black"/>
<path d="M21.6979 10.7141C22.7096 10.7141 23.5326 9.92408 23.5326 8.9529C23.5326 7.98172 22.7096 7.19165 21.6979 7.19165C20.6863 7.19165 19.8633 7.98172 19.8633 8.9529C19.8633 9.92408 20.6863 10.7141 21.6979 10.7141ZM21.6979 7.89615C22.3049 7.89615 22.7987 8.37023 22.7987 8.9529C22.7987 9.53557 22.3049 10.0096 21.6979 10.0096C21.0909 10.0096 20.5971 9.53557 20.5971 8.9529C20.5971 8.37023 21.0909 7.89615 21.6979 7.89615Z" fill="black"/>
<path d="M11.0332 9.49292H11.7671V10.1974H11.0332V9.49292Z" fill="black"/>
<path d="M9.07617 9.96265H9.81003V10.6671H9.07617V9.96265Z" fill="black"/>
<path d="M21.209 13.0625H21.9428V13.767H21.209V13.0625Z" fill="black"/>
<path d="M4.52539 5.07812H5.25924V5.78263H4.52539V5.07812Z" fill="black"/>
</svg>
