<svg width="21" height="20" viewBox="0 0 21 20" fill="none" xmlns="http://www.w3.org/2000/svg">
<path d="M19.95 2.66675H1.05C0.470094 2.66675 0 3.11446 0 3.66675V14.3334C0 14.8857 0.470094 15.3334 1.05 15.3334H7.0462L6.11275 16.6667H4.2C4.00671 16.6667 3.85 16.816 3.85 17.0001C3.85 17.1842 4.00671 17.3334 4.2 17.3334H16.8C16.9933 17.3334 17.15 17.1842 17.15 17.0001C17.15 16.816 16.9933 16.6667 16.8 16.6667H14.8872L13.9538 15.3334H19.95C20.5299 15.3334 21 14.8857 21 14.3334V3.66675C21 3.11446 20.5299 2.66675 19.95 2.66675ZM14.0458 16.6667H6.95415L7.88725 15.3334H13.1128L14.0458 16.6667ZM20.3 14.3334C20.3 14.5175 20.1433 14.6667 19.95 14.6667H1.05C0.856712 14.6667 0.7 14.5175 0.7 14.3334V3.66675C0.7 3.48266 0.856712 3.33341 1.05 3.33341H19.95C20.1433 3.33341 20.3 3.48266 20.3 3.66675V14.3334Z" fill="black"/>
<path d="M1.04883 3.66675V14.3334H19.9488V3.66675H1.04883ZM19.2488 13.6667H1.74883V4.33341H19.2488V13.6667Z" fill="black"/>
</svg>
