<svg width="32" height="32" viewBox="0 0 32 32" fill="none" xmlns="http://www.w3.org/2000/svg">
<rect width="32" height="32" rx="5" fill="#FFC700"/>
<path d="M21.0448 6H10.9552C7.67144 6 5 8.55001 5 11.6845V21.3156C5 24.4499 7.67144 27 10.9552 27H21.0449C24.3285 27 27 24.4499 27 21.3156V11.6845C27 8.55001 24.3285 6 21.0448 6V6ZM16 22.242C12.683 22.242 9.98453 19.6662 9.98453 16.5C9.98453 13.3338 12.683 10.758 16 10.758C19.317 10.758 22.0154 13.3338 22.0154 16.5C22.0154 19.6662 19.317 22.242 16 22.242ZM22.1593 12.1121C21.179 12.1121 20.3818 11.3511 20.3818 10.4154C20.3818 9.47975 21.179 8.71856 22.1593 8.71856C23.1395 8.71856 23.9369 9.47975 23.9369 10.4154C23.9369 11.3511 23.1395 12.1121 22.1593 12.1121Z" fill="white"/>
<path d="M16.0001 12.3C13.574 12.3 11.6001 14.1841 11.6001 16.5C11.6001 18.8158 13.574 20.7 16.0001 20.7C18.4263 20.7 20.4001 18.8158 20.4001 16.5C20.4001 14.1841 18.4263 12.3 16.0001 12.3Z" fill="white"/>
<path d="M22.1594 9.94983C21.8905 9.94983 21.6716 10.1588 21.6716 10.4154C21.6716 10.6721 21.8905 10.881 22.1594 10.881C22.4284 10.881 22.6473 10.6722 22.6473 10.4154C22.6473 10.1586 22.4284 9.94983 22.1594 9.94983Z" fill="white"/>
</svg>
