<svg width="32" height="32" viewBox="0 0 32 32" fill="none" xmlns="http://www.w3.org/2000/svg">
<rect width="32" height="32" rx="5" fill="#FFC700"/>
<g clip-path="url(#clip0)">
<path d="M26.2255 18.1563C26.8818 12.8827 25.9102 9.55334 24.1575 8.04746L24.1584 8.04659C21.3296 5.47496 11.7761 5.09434 8.39174 8.16209C6.87191 9.66271 6.33657 11.8651 6.27791 14.5916C6.21924 17.319 6.14957 22.4281 11.1372 23.8141H11.1417L11.1372 25.9307C11.1372 25.9307 11.1032 26.7882 11.6771 26.9606C12.3334 27.1636 12.6304 26.7655 14.6718 24.438C18.0855 24.7206 20.7072 24.0731 21.0051 23.9786C21.6944 23.7581 25.5948 23.2655 26.2255 18.1563ZM15.0082 22.9487C15.0082 22.9487 12.8477 25.5203 12.1757 26.188C11.9557 26.405 11.7147 26.3848 11.7183 25.9543C11.7183 25.6717 11.7348 22.4403 11.7348 22.4403C7.50624 21.2836 7.75557 16.9331 7.80141 14.6572C7.84724 12.3805 8.28357 10.5158 9.57057 9.26021C12.5397 6.60284 20.9152 7.19696 23.0492 9.11146C25.6581 11.3191 24.7295 17.5561 24.735 17.7687C24.1987 22.0335 21.0381 22.3038 20.4569 22.4885C20.2085 22.5672 17.9031 23.1333 15.0082 22.9487Z" fill="white"/>
<path d="M16.2037 9.75977C15.8507 9.75977 15.8507 10.2848 16.2037 10.2891C18.9417 10.3093 21.1967 12.131 21.2215 15.4726C21.2215 15.8253 21.7623 15.8209 21.7577 15.4683H21.7568C21.7275 11.8676 19.2653 9.77989 16.2037 9.75977Z" fill="white"/>
<path d="M19.8052 14.9188C19.797 15.2671 20.3369 15.2837 20.3415 14.9311C20.3864 12.9457 19.104 11.3103 16.694 11.138C16.3411 11.1135 16.3044 11.6428 16.6564 11.6673C18.7465 11.8187 19.8474 13.1802 19.8052 14.9188Z" fill="white"/>
<path d="M19.2276 17.1773C18.7748 16.9271 18.3137 17.0828 18.123 17.3287L17.7243 17.8213C17.5217 18.0716 17.1431 18.0383 17.1431 18.0383C14.3803 17.341 13.6414 14.5812 13.6414 14.5812C13.6414 14.5812 13.6075 14.2076 13.8605 14.0072L14.3592 13.6135C14.6085 13.4245 14.7662 12.9695 14.5123 12.5223C13.8339 11.3525 13.3784 10.9491 13.1464 10.6393C12.9026 10.348 12.5359 10.2823 12.1546 10.4792H12.1464C11.3534 10.922 10.4854 11.7506 10.7631 12.6037C11.237 13.5032 12.1079 16.3706 14.8835 18.5371C16.1879 19.5617 18.2523 20.6117 19.1286 20.8541L19.1369 20.8663C20.0004 21.1411 20.84 20.2801 21.2883 19.5005V19.4943C21.4872 19.1172 21.4212 18.7602 21.1306 18.5266C20.6154 18.0471 19.8381 17.5177 19.2276 17.1773Z" fill="white"/>
<path d="M17.0715 13.0909C17.9524 13.1399 18.3796 13.5792 18.4254 14.4813C18.4419 14.8339 18.9782 14.8094 18.9617 14.4568C18.903 13.279 18.2595 12.6228 17.1008 12.5615C16.7479 12.5414 16.7149 13.0708 17.0715 13.0909Z" fill="white"/>
</g>
<defs>
<clipPath id="clip0">
<rect width="22" height="21" fill="white" transform="translate(5 6)"/>
</clipPath>
</defs>
</svg>
